<?xml version="1.0" encoding="UTF-8" standalone="no"?>
<svg
   xmlns:dc="http://purl.org/dc/elements/1.1/"
   xmlns:cc="http://creativecommons.org/ns#"
   xmlns:rdf="http://www.w3.org/1999/02/22-rdf-syntax-ns#"
   xmlns:svg="http://www.w3.org/2000/svg"
   xmlns="http://www.w3.org/2000/svg"
   xmlns:sodipodi="http://sodipodi.sourceforge.net/DTD/sodipodi-0.dtd"
   xmlns:inkscape="http://www.inkscape.org/namespaces/inkscape"
   xml:space="preserve"
   style="enable-background:new 0 0 284.5 78.2;"
   viewBox="0 0 284.5 78.2"
   height="78.2px"
   width="284.5px"
   y="0px"
   x="0px"
   id="Layer_1"
   version="1.1"
   sodipodi:docname="LR_WebUI_LogoTemplate.svg"
   inkscape:version="0.92.2 (5c3e80d, 2017-08-06)"><sodipodi:namedview
     pagecolor="#ffffff"
     bordercolor="#666666"
     borderopacity="1"
     objecttolerance="10"
     gridtolerance="10"
     guidetolerance="10"
     inkscape:pageopacity="0"
     inkscape:pageshadow="2"
     inkscape:window-width="2741"
     inkscape:window-height="1586"
     id="namedview3792"
     showgrid="false"
     inkscape:zoom="6.3925436"
     inkscape:cx="119.40763"
     inkscape:cy="43.19981"
     inkscape:window-x="129"
     inkscape:window-y="-11"
     inkscape:window-maximized="1"
     inkscape:current-layer="Layer_1" /><metadata
     id="metadata3861"><rdf:RDF><cc:Work
         rdf:about=""><dc:format>image/svg+xml</dc:format><dc:type
           rdf:resource="http://purl.org/dc/dcmitype/StillImage" /><dc:title></dc:title></cc:Work></rdf:RDF></metadata><defs
     id="defs3859" /><style
     id="style3781"
     type="text/css">
	.st0{display:none;}
	.st1{fill:#FFFFFF;}
	.st2{fill:#FFE600;}
	.st3{fill:#808080;}
</style><g
     class="st0"
     id="clearspace" /><g
     transform="translate(-39.852555,-4.534123)"
     id="g3828"><path
       style="fill:#ffffff"
       id="path3784"
       d="m 221.3,74.1 h -2.5 V 62 c 1.1,-0.2 2.5,-0.3 4,-0.3 2.7,0 5,0.5 5,3.9 0,2.2 -0.9,3.2 -2.4,3.7 l 2.8,5 h -2.9 l -2.5,-4.7 c -0.5,0 -1.1,0 -1.5,-0.1 z m 0,-6.7 c 0.5,0.1 1,0.1 1.5,0.1 1.6,0 2.5,-0.4 2.5,-2 0,-1.4 -0.6,-1.9 -2.4,-1.9 -0.5,0 -1.1,0 -1.6,0.1 z"
       class="st1" /><path
       style="fill:#ffffff"
       id="path3786"
       d="m 235.9,74.1 v -5.7 c 0,-1.3 -0.3,-1.9 -2,-1.9 -0.5,0 -1.1,0.1 -1.5,0.3 v 7.4 H 230 V 61 h 2.4 v 3.8 c 0.6,-0.2 1.3,-0.3 2.1,-0.3 3.4,0 3.7,1.6 3.7,3.6 v 6 z"
       class="st1" /><path
       style="fill:#ffffff"
       id="path3788"
       d="m 245.9,64.7 h 2.4 l -4.4,12.9 h -2.4 l 1.5,-4.1 -3.8,-8.8 h 2.5 l 2.4,5.8 z"
       class="st1" /><path
       style="fill:#ffffff"
       id="path3790"
       d="m 253.2,62 v 2.7 h 1.9 v 1.8 h -1.9 v 4.9 c 0,0.8 0.3,1.1 1.1,1.1 0.3,0 0.5,0 0.8,0 l 0.2,1.7 c -0.5,0.1 -1.1,0.2 -1.6,0.2 -2,0 -2.8,-0.9 -2.8,-2.7 v -5.1 h -1.5 v -1.8 h 1.5 v -2.3 z"
       class="st1" /><path
       style="fill:#ffffff"
       id="path3792"
       d="m 263.1,74.1 v -5.7 c 0,-1.3 -0.3,-1.9 -2,-1.9 -0.5,0 -1.1,0.1 -1.5,0.3 v 7.4 h -2.4 V 61 h 2.4 v 3.8 c 0.6,-0.2 1.3,-0.3 2.1,-0.3 3.4,0 3.7,1.6 3.7,3.6 v 6 z"
       class="st1" /><g
       id="g3806"><path
         style="fill:#ffffff"
         id="path3794"
         d="m 178.3,72.5 c 0,-0.9 0.7,-1.6 1.6,-1.6 0.9,0 1.6,0.7 1.6,1.6 0,0.9 -0.7,1.6 -1.6,1.6 -0.9,0 -1.6,-0.7 -1.6,-1.6 z"
         class="st1" /><path
         style="fill:#ffffff"
         id="path3796"
         d="m 183,67.9 c 0,-0.9 0.7,-1.6 1.6,-1.6 0.9,0 1.6,0.7 1.6,1.6 0,0.9 -0.7,1.6 -1.6,1.6 -0.9,0 -1.6,-0.7 -1.6,-1.6 z"
         class="st1" /><path
         style="fill:#ffffff"
         id="path3798"
         d="m 173.7,72.5 c 0,-0.9 0.7,-1.6 1.6,-1.6 0.9,0 1.6,0.7 1.6,1.6 0,0.9 -0.7,1.6 -1.6,1.6 -0.9,0 -1.6,-0.7 -1.6,-1.6 z"
         class="st1" /><circle
         style="fill:#ffffff"
         r="1.6"
         id="ellipse3800"
         cy="63.200001"
         cx="184.60001"
         class="st1" /><path
         style="fill:#ffffff"
         id="path3802"
         d="m 173.7,67.9 c 0,-0.9 0.7,-1.6 1.6,-1.6 0.9,0 1.6,0.7 1.6,1.6 0,0.9 -0.7,1.6 -1.6,1.6 -0.9,0 -1.6,-0.7 -1.6,-1.6 z"
         class="st1" /><circle
         style="fill:#ffffff"
         id="circle3804"
         r="1.6"
         cy="63.200001"
         cx="179.89999"
         class="st1" /></g><g
       id="g3818"><g
         id="g3814"><path
           style="fill:#ffffff"
           id="path3808"
           d="m 196.7,74.1 c -0.9,0 -2.4,0.1 -3.2,0.1 -2.2,0 -4.3,-0.1 -4.3,-3 v -9.4 h 2.5 v 8.7 c 0,1.4 0.3,1.7 1.7,1.7 h 3.2 z"
           class="st1" /><path
           style="fill:#ffffff"
           id="path3810"
           d="m 197.4,69.4 c 0,-3.5 1.1,-4.9 4.2,-4.9 3.1,0 4.2,1.4 4.2,4.9 0,3.5 -1.1,4.9 -4.2,4.9 -3.1,0 -4.2,-1.4 -4.2,-4.9 z m 6.1,0 c 0,-2.3 -0.4,-2.9 -1.9,-2.9 -1.5,0 -1.9,0.6 -1.9,2.9 0,2.4 0.4,2.9 1.9,2.9 1.6,0.1 1.9,-0.6 1.9,-2.9 z"
           class="st1" /><path
           style="fill:#ffffff"
           id="path3812"
           d="m 208.2,75.6 c 0.9,0.1 2.3,0.3 3.4,0.3 1.3,0 1.8,-0.6 1.8,-1.8 v -0.3 c -0.6,0.1 -1.2,0.2 -1.8,0.2 -2.9,0 -4.2,-1.2 -4.2,-4.7 0,-3.6 1.4,-4.7 4.5,-4.7 1.3,0 2.7,0.3 3.8,0.9 0.1,0.6 0.1,1.2 0.1,1.8 v 7.5 c 0,2.5 -1.8,3.1 -3.9,3.1 -1.4,0 -2.9,-0.2 -3.9,-0.4 z m 1.6,-6.3 c 0,1.7 0.1,2.9 2.3,2.9 0.4,0 0.9,-0.1 1.3,-0.2 v -4.1 c 0,-0.4 0,-0.9 -0.1,-1.3 -0.3,-0.2 -0.9,-0.3 -1.5,-0.3 -1.8,0.1 -2,1.5 -2,3 z"
           class="st1" /></g><path
         style="fill:#ffffff"
         id="path3816"
         d="m 178.3,67.9 c 0,-0.9 0.7,-1.6 1.6,-1.6 0.9,0 1.6,0.7 1.6,1.6 0,0.9 -0.7,1.6 -1.6,1.6 -0.9,0 -1.6,-0.7 -1.6,-1.6 z"
         class="st1" /></g><g
       id="g3826"><path
         style="fill:#ffffff"
         id="path3820"
         d="m 269.8,74.1 h -2.4 v -6.9 c 0,-0.6 0,-1.2 0.1,-1.8 1.1,-0.6 2.5,-0.9 4,-0.9 1,0 1.8,0.2 2.3,0.5 0.8,-0.3 1.9,-0.5 2.9,-0.5 3,0 3.5,1.6 3.5,3.6 v 6 h -2.4 v -5.8 c 0,-1.2 -0.3,-1.9 -1.6,-1.9 -0.4,0 -0.9,0.1 -1.3,0.3 0.1,0.4 0.1,0.9 0.1,1.3 v 6 h -2.4 v -5.8 c 0,-1.2 -0.3,-1.9 -1.6,-1.9 -0.4,0 -0.9,0.1 -1.2,0.3 0,0.4 -0.1,0.8 -0.1,1.3 z"
         class="st1" /><g
         id="g3824"><path
           style="fill:#ffffff"
           id="path3822"
           d="m 282.2,64.6 c 0.7,0 1.3,0.6 1.3,1.3 0,0.7 -0.6,1.3 -1.3,1.3 -0.7,0 -1.3,-0.6 -1.3,-1.3 0,-0.7 0.6,-1.3 1.3,-1.3 z m 0,0.3 c -0.5,0 -0.9,0.4 -0.9,0.9 0,0.5 0.4,1 0.9,1 0.5,0 0.9,-0.4 0.9,-1 0,-0.5 -0.4,-0.9 -0.9,-0.9 z m -0.2,1.6 h -0.3 v -1.4 h 0.5 c 0.4,0 0.5,0.2 0.5,0.4 0,0.2 -0.1,0.3 -0.3,0.4 l 0.3,0.6 h -0.3 L 282.1,66 H 282 Z m 0,-1.1 v 0.3 h 0.2 c 0.2,0 0.3,-0.1 0.3,-0.2 0,-0.1 -0.1,-0.2 -0.3,-0.2 z"
           class="st1" /></g></g></g><g
     transform="translate(-39.852555,-4.534123)"
     id="g3848"><path
       style="fill:#ffffff"
       id="path3830"
       d="m 95.1,65.7 c 0,1 -0.4,1.8 -1.1,2.4 -0.7,0.6 -1.7,0.8 -3,0.8 h -1.7 v 4.4 H 88.6 V 62.6 h 2.6 c 2.7,0 3.9,1.1 3.9,3.1 z m -5.7,2.6 h 1.5 c 1.2,0 2.1,-0.2 2.6,-0.6 0.5,-0.4 0.8,-1 0.8,-1.9 C 94.3,65 94,64.4 93.5,64 93,63.6 92.2,63.4 91.1,63.4 h -1.8 v 4.9 z"
       class="st1" /><path
       style="fill:#ffffff"
       id="path3832"
       d="m 103.9,69.4 c 0,1.3 -0.3,2.3 -0.9,3.1 -0.6,0.7 -1.5,1.1 -2.6,1.1 -0.7,0 -1.3,-0.2 -1.9,-0.5 C 98,72.8 97.6,72.3 97.3,71.6 97,71 96.9,70.2 96.9,69.4 c 0,-1.3 0.3,-2.3 0.9,-3 0.6,-0.7 1.5,-1.1 2.6,-1.1 1.1,0 2,0.4 2.6,1.1 0.6,0.7 0.9,1.7 0.9,3 z m -6.3,0 c 0,1.1 0.2,2 0.7,2.6 0.5,0.6 1.2,0.9 2,0.9 0.9,0 1.6,-0.3 2,-0.9 0.5,-0.6 0.7,-1.5 0.7,-2.6 0,-1.1 -0.2,-2 -0.7,-2.6 -0.5,-0.6 -1.2,-0.9 -2.1,-0.9 -0.9,0 -1.6,0.3 -2,0.9 -0.4,0.6 -0.6,1.5 -0.6,2.6 z"
       class="st1" /><path
       style="fill:#ffffff"
       id="path3834"
       d="m 112.5,73.4 -1.7,-5.3 c -0.1,-0.4 -0.3,-0.9 -0.4,-1.6 v 0 l -0.2,0.5 -0.3,1.1 -1.8,5.3 h -0.7 l -2.3,-8 h 0.8 l 1.3,4.6 c 0.3,1.1 0.5,2 0.6,2.5 v 0 c 0.3,-1.1 0.5,-1.9 0.6,-2.3 l 1.6,-4.9 h 0.7 l 1.6,4.9 c 0.4,1.2 0.6,1.9 0.6,2.3 v 0 c 0,-0.3 0.2,-1.2 0.6,-2.6 l 1.2,-4.6 h 0.7 l -2.2,8 z"
       class="st1" /><path
       style="fill:#ffffff"
       id="path3836"
       d="m 120.2,73.5 c -1.2,0 -2.1,-0.4 -2.7,-1.1 -0.6,-0.7 -1,-1.7 -1,-3 0,-1.3 0.3,-2.3 0.9,-3.1 0.6,-0.8 1.5,-1.2 2.5,-1.2 0.9,0 1.7,0.3 2.2,1 0.5,0.7 0.8,1.5 0.8,2.7 v 0.6 h -5.8 c 0,1.1 0.3,1.9 0.8,2.5 0.5,0.6 1.2,0.9 2.2,0.9 0.5,0 0.9,0 1.2,-0.1 0.3,-0.1 0.8,-0.2 1.3,-0.4 V 73 c -0.5,0.2 -0.9,0.3 -1.2,0.4 -0.3,0.1 -0.7,0.1 -1.2,0.1 z M 120,65.9 c -0.8,0 -1.4,0.3 -1.9,0.8 -0.5,0.5 -0.7,1.2 -0.8,2.2 h 4.9 c 0,-0.9 -0.2,-1.6 -0.6,-2.2 -0.3,-0.6 -0.9,-0.8 -1.6,-0.8 z"
       class="st1" /><path
       style="fill:#ffffff"
       id="path3838"
       d="m 128.4,65.2 c 0.3,0 0.7,0 1.1,0.1 l -0.1,0.7 c -0.3,-0.1 -0.7,-0.1 -1,-0.1 -0.7,0 -1.2,0.3 -1.7,0.9 -0.4,0.6 -0.7,1.3 -0.7,2.2 v 4.4 h -0.7 v -8 h 0.6 l 0.1,1.4 h 0.1 c 0.3,-0.6 0.7,-1 1.1,-1.2 0.2,-0.2 0.7,-0.4 1.2,-0.4 z"
       class="st1" /><path
       style="fill:#ffffff"
       id="path3840"
       d="m 134.3,73.5 c -1.2,0 -2.1,-0.4 -2.7,-1.1 -0.6,-0.7 -1,-1.7 -1,-3 0,-1.3 0.3,-2.3 0.9,-3.1 0.6,-0.8 1.5,-1.2 2.5,-1.2 0.9,0 1.7,0.3 2.2,1 0.5,0.7 0.8,1.5 0.8,2.7 v 0.6 h -5.8 c 0,1.1 0.3,1.9 0.8,2.5 0.5,0.6 1.2,0.9 2.2,0.9 0.5,0 0.9,0 1.2,-0.1 0.3,-0.1 0.8,-0.2 1.3,-0.4 V 73 c -0.5,0.2 -0.9,0.3 -1.2,0.4 -0.3,0.1 -0.7,0.1 -1.2,0.1 z m -0.2,-7.6 c -0.8,0 -1.4,0.3 -1.9,0.8 -0.5,0.5 -0.7,1.2 -0.8,2.2 h 4.9 c 0,-0.9 -0.2,-1.6 -0.6,-2.2 -0.3,-0.6 -0.9,-0.8 -1.6,-0.8 z"
       class="st1" /><path
       style="fill:#ffffff"
       id="path3842"
       d="m 142.3,65.2 c 0.6,0 1.1,0.1 1.5,0.3 0.4,0.2 0.8,0.6 1.1,1.1 v 0 c 0,-0.6 0,-1.2 0,-1.8 v -2.9 h 0.7 v 11.4 h -0.5 l -0.2,-1.2 h -0.1 c -0.6,0.9 -1.5,1.4 -2.6,1.4 -1.1,0 -1.9,-0.3 -2.5,-1 -0.6,-0.7 -0.9,-1.7 -0.9,-3 0,-1.4 0.3,-2.4 0.9,-3.2 0.6,-0.7 1.5,-1.1 2.6,-1.1 z m 0,0.7 c -0.9,0 -1.5,0.3 -2,0.9 -0.4,0.6 -0.7,1.5 -0.7,2.7 0,2.3 0.9,3.4 2.6,3.4 0.9,0 1.6,-0.3 2,-0.8 0.4,-0.5 0.6,-1.4 0.6,-2.6 v -0.1 c 0,-1.2 -0.2,-2.1 -0.6,-2.7 -0.4,-0.6 -1,-0.8 -1.9,-0.8 z"
       class="st1" /><path
       style="fill:#ffffff"
       id="path3844"
       d="m 155.6,65.2 c 1.1,0 2,0.4 2.5,1.1 0.6,0.7 0.8,1.7 0.8,3.1 0,1.3 -0.3,2.4 -0.9,3.1 -0.6,0.7 -1.4,1.1 -2.5,1.1 -0.6,0 -1.1,-0.1 -1.5,-0.4 -0.5,-0.2 -0.8,-0.6 -1.1,-1 h -0.1 l -0.2,1.2 h -0.5 V 61.9 h 0.7 v 2.9 c 0,0.4 0,0.8 0,1.2 v 0.6 h 0.1 c 0.3,-0.5 0.7,-0.8 1.1,-1.1 0.5,-0.1 1,-0.3 1.6,-0.3 z m 0,0.7 c -0.9,0 -1.6,0.3 -2,0.8 -0.4,0.5 -0.6,1.4 -0.6,2.7 v 0.1 c 0,1.2 0.2,2.1 0.6,2.6 0.4,0.5 1.1,0.8 2,0.8 0.9,0 1.5,-0.3 2,-0.9 0.4,-0.6 0.7,-1.5 0.7,-2.6 -0.1,-2.3 -1,-3.5 -2.7,-3.5 z"
       class="st1" /><path
       style="fill:#ffffff"
       id="path3846"
       d="m 159.8,65.4 h 0.7 l 1.7,4.5 c 0.5,1.4 0.8,2.3 1,2.8 v 0 c 0.2,-0.6 0.5,-1.6 1,-2.8 l 1.7,-4.4 h 0.8 l -3.6,9.3 c -0.3,0.8 -0.5,1.3 -0.7,1.5 -0.2,0.3 -0.4,0.5 -0.7,0.6 -0.3,0.1 -0.6,0.2 -1,0.2 -0.3,0 -0.6,-0.1 -0.9,-0.2 v -0.6 c 0.3,0.1 0.6,0.1 0.9,0.1 0.2,0 0.5,-0.1 0.7,-0.2 0.2,-0.1 0.4,-0.3 0.5,-0.5 0.1,-0.2 0.3,-0.6 0.5,-1.2 0.2,-0.5 0.3,-0.9 0.4,-1 z"
       class="st1" /></g><g
     inkscape:groupmode="layer"
     id="layer2"
     inkscape:label="Layer 1" /><path
     inkscape:connector-curvature="0"
     style="fill:#ef3b39;stroke-width:0.71122974"
     d="m 122.44783,9.8777401 c 0,0 -7.95692,1.0847199 -9.58911,8.6777609 -1.63219,7.593042 -5.30461,26.653125 -5.30461,26.653125 0,0 1.22414,5.733521 7.44686,5.733521 6.22272,0 21.7285,0 21.7285,0 l 2.24426,-11.776962 -13.26153,-0.15496 c 0,0 -2.85633,-0.61984 -2.44828,-2.479361 0.40805,-1.85952 2.85633,-11.931922 2.85633,-11.931922 0,0 0,-2.01448 3.87645,-2.01448 3.87644,0 13.0575,0.15496 13.0575,0.15496 l 2.85633,-12.8616819 z"
     id="path3795" /><path
     inkscape:connector-curvature="0"
     style="fill:#ef3b39;stroke-width:0.71122974"
     d="M 80.623014,10.65254 61.036757,50.942147 h 14.485667 l 2.85633,-5.733521 h 10.4052 v 5.733521 H 103.26962 V 10.65254 Z m 8.16094,22.624164 h -5.2026 l 5.2026,-8.677762 z"
     id="path3797" /><polygon
     transform="matrix(0.81609398,0,0,0.61984011,57.772381,7.5533391)"
     style="fill:#ef3b39"
     points="147.5,3.75 137.25,28.5 137.25,3.75 116.25,3.75 103.25,70 121,70 126.75,44.75 126.75,70 137.25,70 146.25,44.75 141.25,70 157.25,70 170,3.75 "
     id="polygon3799" /><polygon
     transform="matrix(0.81609398,0,0,0.61984011,57.772381,7.5533391)"
     style="fill:#ef3b39"
     points="210,22.75 213.25,3.75 177.5,3.75 165.5,70 201,70 204.25,49.5 186.5,49.5 188.25,42.75 205.75,42.75 208.5,28.5 190.5,28.5 192,22.75 "
     id="polygon3801" /></svg>